<svg xmlns="http://www.w3.org/2000/svg" viewBox="0 0 180 180" width="180" height="180">
  <!-- Фон для Apple устройств -->
  <rect width="180" height="180" fill="#ffffff" rx="20"/>
  
  <!-- Красный домик на основе прикрепленного изображения -->
  <path fill="#dc2626" d="M90 30L30 70v80h120V70L90 30z"/>
  
  <!-- Крыша с тенью -->
  <path fill="#b91c1c" d="M90 30L20 72v-6L90 20L160 66v6L90 30z"/>
  
  <!-- Окна -->
  <rect fill="#ffffff" x="50" y="90" width="20" height="20" rx="3"/>
  <rect fill="#ffffff" x="110" y="90" width="20" height="20" rx="3"/>
  
  <!-- Оконные рамы -->
  <line stroke="#cccccc" stroke-width="2" x1="60" y1="90" x2="60" y2="110"/>
  <line stroke="#cccccc" stroke-width="2" x1="50" y1="100" x2="70" y2="100"/>
  <line stroke="#cccccc" stroke-width="2" x1="120" y1="90" x2="120" y2="110"/>
  <line stroke="#cccccc" stroke-width="2" x1="110" y1="100" x2="130" y2="100"/>
  
  <!-- Дверь -->
  <rect fill="#8b0000" x="80" y="120" width="20" height="30" rx="3"/>
  <circle fill="#ffffff" cx="92" cy="135" r="2"/>
  
  <!-- Дополнительные детали -->
  <rect fill="#ffffff" x="85" y="125" width="10" height="5" rx="1"/>
</svg>
