<svg xmlns="http://www.w3.org/2000/svg" viewBox="0 0 64 64" width="64" height="64">
  <!-- Красивый домик для фавикона -->
  <defs>
    <linearGradient id="houseGradient" x1="0%" y1="0%" x2="100%" y2="100%">
      <stop offset="0%" style="stop-color:#4F46E5;stop-opacity:1" />
      <stop offset="100%" style="stop-color:#7C3AED;stop-opacity:1" />
    </linearGradient>
    <linearGradient id="roofGradient" x1="0%" y1="0%" x2="100%" y2="0%">
      <stop offset="0%" style="stop-color:#1E40AF;stop-opacity:1" />
      <stop offset="100%" style="stop-color:#3730A3;stop-opacity:1" />
    </linearGradient>
    <linearGradient id="doorGradient" x1="0%" y1="0%" x2="100%" y2="100%">
      <stop offset="0%" style="stop-color:#92400E;stop-opacity:1" />
      <stop offset="100%" style="stop-color:#78350F;stop-opacity:1" />
    </linearGradient>
    <linearGradient id="windowGradient" x1="0%" y1="0%" x2="100%" y2="100%">
      <stop offset="0%" style="stop-color:#F0F9FF;stop-opacity:1" />
      <stop offset="100%" style="stop-color:#E0F2FE;stop-opacity:1" />
    </linearGradient>
    <filter id="shadow" x="-20%" y="-20%" width="140%" height="140%">
      <feDropShadow dx="2" dy="4" stdDeviation="3" flood-color="#000000" flood-opacity="0.3"/>
    </filter>
  </defs>
  
  <!-- Тень дома -->
  <ellipse cx="32" cy="58" rx="18" ry="3" fill="#1F2937" opacity="0.2"/>
  
  <!-- Основа дома с градиентом -->
  <path d="M32 8L8 26v30h48V26L32 8z" fill="url(#houseGradient)" filter="url(#shadow)"/>
  
  <!-- Крыша с градиентом -->
  <path d="M32 8L6 28v-4L32 4L58 24v4L32 8z" fill="url(#roofGradient)"/>
  
  <!-- Дымоход -->
  <rect x="44" y="12" width="4" height="12" fill="#1E293B" rx="1"/>
  <rect x="43" y="10" width="6" height="4" fill="#374151" rx="1"/>
  
  <!-- Левое окно с градиентом -->
  <rect x="16" y="32" width="8" height="8" fill="url(#windowGradient)" rx="1" stroke="#CBD5E1" stroke-width="0.5"/>
  <line stroke="#94A3B8" stroke-width="1" x1="20" y1="32" x2="20" y2="40"/>
  <line stroke="#94A3B8" stroke-width="1" x1="16" y1="36" x2="24" y2="36"/>
  
  <!-- Правое окно с градиентом -->
  <rect x="40" y="32" width="8" height="8" fill="url(#windowGradient)" rx="1" stroke="#CBD5E1" stroke-width="0.5"/>
  <line stroke="#94A3B8" stroke-width="1" x1="44" y1="32" x2="44" y2="40"/>
  <line stroke="#94A3B8" stroke-width="1" x1="40" y1="36" x2="48" y2="36"/>
  
  <!-- Дверь с градиентом -->
  <rect x="28" y="44" width="8" height="12" fill="url(#doorGradient)" rx="1"/>
  <circle fill="#FEF3C7" cx="34" cy="50" r="1"/>
  
  <!-- Дополнительные детали -->
  <rect fill="#FEF3C7" x="30" y="46" width="4" height="2" rx="0.5"/>
  
  <!-- Декоративные элементы -->
  <circle fill="#F59E0B" cx="12" cy="18" r="1" opacity="0.8"/>
  <circle fill="#F59E0B" cx="52" cy="18" r="1" opacity="0.8"/>
</svg>
